<mxfile host="app.diagrams.net" modified="2023-09-18T15:23:52.527Z" agent="Mozilla/5.0 (Windows NT 10.0; Win64; x64) AppleWebKit/537.36 (KHTML, like Gecko) Chrome/111.0.0.0 Safari/537.36" etag="R3EymS4HsPZ4TmqO5bt5" version="21.7.5" type="device">
  <diagram name="Página-1" id="4bK5ch8U3DDefr6Q47va">
    <mxGraphModel dx="1434" dy="806" grid="1" gridSize="10" guides="1" tooltips="1" connect="1" arrows="1" fold="1" page="1" pageScale="1" pageWidth="827" pageHeight="1169" math="0" shadow="0">
      <root>
        <mxCell id="0" />
        <mxCell id="1" parent="0" />
        <mxCell id="7XaZhCJQ8-Ex-2jWwDRv-5" style="edgeStyle=orthogonalEdgeStyle;rounded=0;orthogonalLoop=1;jettySize=auto;html=1;entryX=0;entryY=0.5;entryDx=0;entryDy=0;" edge="1" parent="1" source="7XaZhCJQ8-Ex-2jWwDRv-2" target="7XaZhCJQ8-Ex-2jWwDRv-4">
          <mxGeometry relative="1" as="geometry" />
        </mxCell>
        <mxCell id="7XaZhCJQ8-Ex-2jWwDRv-2" value="Votante" style="rounded=0;whiteSpace=wrap;html=1;" vertex="1" parent="1">
          <mxGeometry x="120" y="180" width="120" height="60" as="geometry" />
        </mxCell>
        <mxCell id="7XaZhCJQ8-Ex-2jWwDRv-7" style="edgeStyle=orthogonalEdgeStyle;rounded=0;orthogonalLoop=1;jettySize=auto;html=1;entryX=1;entryY=0.5;entryDx=0;entryDy=0;" edge="1" parent="1" source="7XaZhCJQ8-Ex-2jWwDRv-3" target="7XaZhCJQ8-Ex-2jWwDRv-4">
          <mxGeometry relative="1" as="geometry" />
        </mxCell>
        <mxCell id="7XaZhCJQ8-Ex-2jWwDRv-3" value="Base de datos" style="rounded=0;whiteSpace=wrap;html=1;" vertex="1" parent="1">
          <mxGeometry x="640" y="180" width="120" height="60" as="geometry" />
        </mxCell>
        <mxCell id="7XaZhCJQ8-Ex-2jWwDRv-4" value="Sistema de votos" style="ellipse;whiteSpace=wrap;html=1;aspect=fixed;" vertex="1" parent="1">
          <mxGeometry x="400" y="170" width="80" height="80" as="geometry" />
        </mxCell>
        <mxCell id="7XaZhCJQ8-Ex-2jWwDRv-8" style="edgeStyle=orthogonalEdgeStyle;rounded=0;orthogonalLoop=1;jettySize=auto;html=1;entryX=0;entryY=0.5;entryDx=0;entryDy=0;" edge="1" parent="1" source="7XaZhCJQ8-Ex-2jWwDRv-9" target="7XaZhCJQ8-Ex-2jWwDRv-12">
          <mxGeometry relative="1" as="geometry" />
        </mxCell>
        <mxCell id="7XaZhCJQ8-Ex-2jWwDRv-9" value="Votante" style="rounded=0;whiteSpace=wrap;html=1;" vertex="1" parent="1">
          <mxGeometry x="120" y="440" width="120" height="60" as="geometry" />
        </mxCell>
        <mxCell id="7XaZhCJQ8-Ex-2jWwDRv-11" value="Base de datos" style="rounded=0;whiteSpace=wrap;html=1;" vertex="1" parent="1">
          <mxGeometry x="640" y="440" width="120" height="60" as="geometry" />
        </mxCell>
        <mxCell id="7XaZhCJQ8-Ex-2jWwDRv-14" value="" style="edgeStyle=orthogonalEdgeStyle;rounded=0;orthogonalLoop=1;jettySize=auto;html=1;" edge="1" parent="1" source="7XaZhCJQ8-Ex-2jWwDRv-12" target="7XaZhCJQ8-Ex-2jWwDRv-13">
          <mxGeometry relative="1" as="geometry" />
        </mxCell>
        <mxCell id="7XaZhCJQ8-Ex-2jWwDRv-12" value="1. Ingresa voto" style="ellipse;whiteSpace=wrap;html=1;aspect=fixed;" vertex="1" parent="1">
          <mxGeometry x="334" y="430" width="80" height="80" as="geometry" />
        </mxCell>
        <mxCell id="7XaZhCJQ8-Ex-2jWwDRv-15" value="" style="edgeStyle=orthogonalEdgeStyle;rounded=0;orthogonalLoop=1;jettySize=auto;html=1;" edge="1" parent="1" source="7XaZhCJQ8-Ex-2jWwDRv-13" target="7XaZhCJQ8-Ex-2jWwDRv-11">
          <mxGeometry relative="1" as="geometry" />
        </mxCell>
        <mxCell id="7XaZhCJQ8-Ex-2jWwDRv-13" value="1. Guarda voto" style="ellipse;whiteSpace=wrap;html=1;aspect=fixed;" vertex="1" parent="1">
          <mxGeometry x="490" y="430" width="80" height="80" as="geometry" />
        </mxCell>
        <mxCell id="7XaZhCJQ8-Ex-2jWwDRv-27" style="edgeStyle=orthogonalEdgeStyle;rounded=0;orthogonalLoop=1;jettySize=auto;html=1;entryX=0;entryY=0.5;entryDx=0;entryDy=0;" edge="1" parent="1" source="7XaZhCJQ8-Ex-2jWwDRv-17" target="7XaZhCJQ8-Ex-2jWwDRv-23">
          <mxGeometry relative="1" as="geometry" />
        </mxCell>
        <mxCell id="7XaZhCJQ8-Ex-2jWwDRv-17" value="Votante" style="rounded=0;whiteSpace=wrap;html=1;" vertex="1" parent="1">
          <mxGeometry x="120" y="740" width="120" height="60" as="geometry" />
        </mxCell>
        <mxCell id="7XaZhCJQ8-Ex-2jWwDRv-31" style="edgeStyle=orthogonalEdgeStyle;rounded=0;orthogonalLoop=1;jettySize=auto;html=1;entryX=0.5;entryY=0;entryDx=0;entryDy=0;" edge="1" parent="1" source="7XaZhCJQ8-Ex-2jWwDRv-18" target="7XaZhCJQ8-Ex-2jWwDRv-25">
          <mxGeometry relative="1" as="geometry" />
        </mxCell>
        <mxCell id="7XaZhCJQ8-Ex-2jWwDRv-18" value="Base de datos" style="rounded=0;whiteSpace=wrap;html=1;" vertex="1" parent="1">
          <mxGeometry x="640" y="740" width="120" height="60" as="geometry" />
        </mxCell>
        <mxCell id="7XaZhCJQ8-Ex-2jWwDRv-19" value="" style="edgeStyle=orthogonalEdgeStyle;rounded=0;orthogonalLoop=1;jettySize=auto;html=1;" edge="1" parent="1" source="7XaZhCJQ8-Ex-2jWwDRv-20" target="7XaZhCJQ8-Ex-2jWwDRv-22">
          <mxGeometry relative="1" as="geometry" />
        </mxCell>
        <mxCell id="7XaZhCJQ8-Ex-2jWwDRv-20" value="1. Ingresa voto" style="ellipse;whiteSpace=wrap;html=1;aspect=fixed;" vertex="1" parent="1">
          <mxGeometry x="390" y="730" width="80" height="80" as="geometry" />
        </mxCell>
        <mxCell id="7XaZhCJQ8-Ex-2jWwDRv-29" style="edgeStyle=orthogonalEdgeStyle;rounded=0;orthogonalLoop=1;jettySize=auto;html=1;entryX=0;entryY=0.5;entryDx=0;entryDy=0;" edge="1" parent="1" source="7XaZhCJQ8-Ex-2jWwDRv-22" target="7XaZhCJQ8-Ex-2jWwDRv-24">
          <mxGeometry relative="1" as="geometry" />
        </mxCell>
        <mxCell id="7XaZhCJQ8-Ex-2jWwDRv-22" value="1. Guarda voto" style="ellipse;whiteSpace=wrap;html=1;aspect=fixed;" vertex="1" parent="1">
          <mxGeometry x="500" y="730" width="80" height="80" as="geometry" />
        </mxCell>
        <mxCell id="7XaZhCJQ8-Ex-2jWwDRv-28" value="" style="edgeStyle=orthogonalEdgeStyle;rounded=0;orthogonalLoop=1;jettySize=auto;html=1;" edge="1" parent="1" source="7XaZhCJQ8-Ex-2jWwDRv-23" target="7XaZhCJQ8-Ex-2jWwDRv-20">
          <mxGeometry relative="1" as="geometry" />
        </mxCell>
        <mxCell id="7XaZhCJQ8-Ex-2jWwDRv-23" value="2. Inicia sesión" style="ellipse;whiteSpace=wrap;html=1;aspect=fixed;" vertex="1" parent="1">
          <mxGeometry x="280" y="730" width="80" height="80" as="geometry" />
        </mxCell>
        <mxCell id="7XaZhCJQ8-Ex-2jWwDRv-30" style="edgeStyle=orthogonalEdgeStyle;rounded=0;orthogonalLoop=1;jettySize=auto;html=1;entryX=0.5;entryY=0;entryDx=0;entryDy=0;exitX=1;exitY=0.5;exitDx=0;exitDy=0;" edge="1" parent="1" source="7XaZhCJQ8-Ex-2jWwDRv-24" target="7XaZhCJQ8-Ex-2jWwDRv-18">
          <mxGeometry relative="1" as="geometry">
            <Array as="points">
              <mxPoint x="700" y="690" />
              <mxPoint x="700" y="690" />
            </Array>
          </mxGeometry>
        </mxCell>
        <mxCell id="7XaZhCJQ8-Ex-2jWwDRv-24" value="2. Registar el voto en el Sistema" style="ellipse;whiteSpace=wrap;html=1;aspect=fixed;" vertex="1" parent="1">
          <mxGeometry x="620" y="620" width="80" height="80" as="geometry" />
        </mxCell>
        <mxCell id="7XaZhCJQ8-Ex-2jWwDRv-33" style="edgeStyle=orthogonalEdgeStyle;rounded=0;orthogonalLoop=1;jettySize=auto;html=1;entryX=1;entryY=0.5;entryDx=0;entryDy=0;" edge="1" parent="1" source="7XaZhCJQ8-Ex-2jWwDRv-25" target="7XaZhCJQ8-Ex-2jWwDRv-26">
          <mxGeometry relative="1" as="geometry" />
        </mxCell>
        <mxCell id="7XaZhCJQ8-Ex-2jWwDRv-25" value="2. Calcula porcentaje del voto" style="ellipse;whiteSpace=wrap;html=1;aspect=fixed;" vertex="1" parent="1">
          <mxGeometry x="660" y="850" width="80" height="80" as="geometry" />
        </mxCell>
        <mxCell id="7XaZhCJQ8-Ex-2jWwDRv-32" value="" style="edgeStyle=orthogonalEdgeStyle;rounded=0;orthogonalLoop=1;jettySize=auto;html=1;" edge="1" parent="1" source="7XaZhCJQ8-Ex-2jWwDRv-26" target="7XaZhCJQ8-Ex-2jWwDRv-17">
          <mxGeometry relative="1" as="geometry" />
        </mxCell>
        <mxCell id="7XaZhCJQ8-Ex-2jWwDRv-26" value="2. Entrega certificado de votacion" style="ellipse;whiteSpace=wrap;html=1;aspect=fixed;" vertex="1" parent="1">
          <mxGeometry x="140" y="850" width="80" height="80" as="geometry" />
        </mxCell>
      </root>
    </mxGraphModel>
  </diagram>
</mxfile>
